<?xml version="1.0" encoding="UTF-8"?>
<svg width="1024px" height="1024px" viewBox="0 0 1024 1024" version="1.1" xmlns="http://www.w3.org/2000/svg" xmlns:xlink="http://www.w3.org/1999/xlink">
    <title>Icon</title>
    <defs>
        <linearGradient x1="19.5305126%" y1="0%" x2="100%" y2="100%" id="linearGradient-1">
            <stop stop-color="#4DB1FF" offset="0%"></stop>
            <stop stop-color="#4DFFED" offset="100%"></stop>
        </linearGradient>
    </defs>
    <g id="Icon" stroke="none" stroke-width="1" fill="none" fill-rule="evenodd">
        <rect id="Background" fill="url(#linearGradient-1)" x="0" y="0" width="1024" height="1024"></rect>
        <g id="Wave" transform="translate(185, 303)" stroke="#FFFFFF" stroke-linecap="round" stroke-linejoin="round" stroke-width="58">
            <g id="Symbol-Bottom" transform="translate(1, 337.6156)">
                <path d="M0,7.38440357 C8.77532765,4.62901504 89.0512929,-14.4499647 151,22.3844033 C188,44.3844043 237.516017,73.0060296 261,77.3844014 C300.333333,84.7177381 333.333333,83.7177398 360,74.3844065" id="Path-1"></path>
            </g>
            <g id="Symbol-Middle" transform="translate(149, 168.6156)">
                <path d="M0,7.38440357 C8.77532765,4.62901504 89.0512929,-14.4499647 151,22.3844033 C188,44.3844043 237.516017,73.0060296 261,77.3844014 C300.333333,84.7177381 333.333333,83.7177398 360,74.3844065" id="Path-1"></path>
            </g>
            <g id="Symbol-Top" transform="translate(296, 0.6156)">
                <path d="M0,7.38440357 C8.77532765,4.62901504 89.0512929,-14.4499647 151,22.3844033 C188,44.3844043 237.516017,73.0060296 261,77.3844014 C300.333333,84.7177381 333.333333,83.7177398 360,74.3844065" id="Path-1"></path>
            </g>
        </g>
    </g>
</svg>